<svg xmlns="http://www.w3.org/2000/svg" width="360" height="90" viewBox="0 0 360 90" fill="none">
<g transform="translate(2 4)">
  <path d="M34 4C23 4 17 13 18 24c1 8 6 13 7 23 1 12 2 24 7 24 4 0 5-9 7-16 2-7 3-10 7-10s5 3 7 10c2 7 3 16 7 16 5 0 6-12 7-24 1-10 6-15 7-23C75 13 69 4 58 4c-5 0-8 3-12 3s-7-3-12-3Z" stroke="#FFFFFF" stroke-width="4.5" stroke-linejoin="round"/>
</g>
<text x="91" y="42" font-family="Inter, Arial, sans-serif" font-size="30" font-weight="800" fill="#FFFFFF">BrightSmile</text>
<text x="93" y="64" font-family="Inter, Arial, sans-serif" font-size="11" font-weight="700" letter-spacing="2.2" fill="#D7E7ED">DENTAL CLINIC</text>
</svg>